<?xml version="1.0" encoding="utf-8"?>
<!-- Generator: Adobe Illustrator 20.1.0, SVG Export Plug-In . SVG Version: 6.00 Build 0)  -->
<svg version="1.1" id="Layer_1" xmlns="http://www.w3.org/2000/svg" xmlns:xlink="http://www.w3.org/1999/xlink" x="0px" y="0px"
	 viewBox="0 0 100 100" style="enable-background:new 0 0 100 100;" xml:space="preserve">
<style type="text/css">
	.st0{fill:#E99574;}
	.st1{fill:#757271;}
	.st2{fill:#F2F2EE;}
</style>
<g>
	<circle class="st0" cx="49.2" cy="50" r="33.7"/>
	<path class="st1" d="M49.2,84.6c-19.1,0-34.6-15.5-34.6-34.6c0-19.1,15.5-34.6,34.6-34.6c19.1,0,34.6,15.5,34.6,34.6
		C83.8,69.1,68.3,84.6,49.2,84.6z M49.2,17.2c-18.1,0-32.8,14.7-32.8,32.8c0,18.1,14.7,32.8,32.8,32.8S82,68.1,82,50
		C82,31.9,67.3,17.2,49.2,17.2z"/>
</g>
<g>
	<path class="st1" d="M76,23.2c0-3.1-2.2-5.3-5.3-5.3c-0.8,0-1.5,0-2.3,0h-1c-0.7,0-1.4,0-2,0c-0.4,0-0.7,0-1.2,0l0,0h-1.7l0,0
		c-0.3,0-0.6,0-0.9,0c-8.5,0-16.9,0-25.4,0c-3.4,0-5.5,2.1-5.5,5.5c0,5.1,0,10.2,0,15.3c0,0.3,0,0.6,0,1c-1.2,0-2.3,0-3.4,0
		c-1.8,0-3.7,0-5.5,0c-2,0-2.9,1.1-2.8,3.1c0.1,2.1,0,4.2,0,6.4c0,4.9,0,9.8,0,14.7c0,1.4,0,2.9,0,4.4h-0.1V70c0,1.4,0,2.7,0,4.2
		v1.9c0.1,0.1,0.1,0.2,0.1,0.4c0.3,2.4,2.4,4.4,4.9,4.4c4.8,0,9.6,0,14.4,0c1.6,0,2.9-0.7,3.9-2c0.3-0.5,0.7-0.6,1.3-0.6
		c9.1,0,18.2,0,27.3,0c3.1,0,5.3-2.2,5.3-5.3C76,56.5,76,39.8,76,23.2z"/>
	<g>
		<g>
			<path class="st2" d="M35.1,19.7c0.3-0.1,0.7-0.1,1-0.1c11.5,0,23.1,0,34.6,0c2.3,0,3.6,1.4,3.6,3.7c0,0.4,0,0.9,0,1.3
				c-14,0-27.9,0-41.8,0C32,22.2,32.9,20.3,35.1,19.7z"/>
			<path class="st2" d="M74.7,25H32.2l-0.1-0.3C31.6,22,32.7,20,35,19.4c0.4-0.1,0.8-0.1,1.1-0.1h34.6c2.5,0,4,1.5,4,4.1V25z
				 M32.8,24.2h41.2v-0.9c0-2.1-1.2-3.3-3.2-3.3H36.1c-0.3,0-0.6,0-0.9,0.1l0,0C33.3,20.6,32.4,22.1,32.8,24.2z"/>
		</g>
		<g>
			<path class="st2" d="M20.7,42.1c0-0.5,0.5-0.7,1-0.7c1.6,0,3.1,0,4.7,0c4.6,0,9.2,0,13.9,0c1.1,0,1.3,0.2,1.3,1.3
				c0,0.7,0,1.3,0,2c-7,0-14,0-20.9,0C20.7,43.8,20.7,43,20.7,42.1z"/>
			<path class="st2" d="M42,45.1H20.3v-3c0-0.6,0.5-1.1,1.4-1.1h18.6c1.3,0,1.7,0.4,1.7,1.7V45.1z M21.1,44.3h20.2v-1.6
				c0-0.9,0-0.9-0.9-0.9H21.7c-0.1,0-0.6,0-0.6,0.3V44.3z"/>
		</g>
		<g>
			<path class="st2" d="M20.7,65.3c0-6,0-12,0-18c0-0.7,0.2-0.8,0.8-0.8c6.4,0,12.8,0,19.2,0c0.7,0,0.9,0.2,0.9,0.9
				c0,7.2,0,14.4,0,21.7c0,0.3,0,0.5,0,0.9c-7,0-14,0-21,0C20.7,68.3,20.7,66.8,20.7,65.3z"/>
			<path class="st2" d="M42,70.4H20.2l0-0.4c0.1-1.7,0.1-3.2,0.1-4.7v-18c0-1,0.4-1.2,1.2-1.2h19.2c0.9,0,1.3,0.4,1.3,1.3V70.4z
				 M21,69.6h20.3V47.4c0-0.5,0-0.5-0.5-0.5H21.5c-0.4,0-0.4,0-0.4,0.4v18C21.1,66.7,21.1,68.1,21,69.6z"/>
		</g>
		<g>
			<path class="st2" d="M41.4,77c-0.2,1.3-1.6,2.2-2.9,2.2c-4.9,0-9.7,0-14.6,0c-1.6,0-3-1.3-3.1-2.9c-0.1-1.5,0-3,0-4.6
				c7,0,13.9,0,21,0C41.6,73.4,41.6,75.2,41.4,77z"/>
			<path class="st2" d="M38.5,79.6H23.9c-1.8,0-3.3-1.5-3.5-3.2c-0.1-1,0-2,0-3c0-0.5,0-1,0-1.6v-0.4h21.8l0,0.4
				c-0.1,0.9-0.1,1.7-0.2,2.6c0,0.9-0.1,1.8-0.2,2.7l0,0C41.5,78.6,39.9,79.6,38.5,79.6z M21.2,72.1c0,0.4,0,0.8,0,1.2c0,1,0,2,0,3
				c0.1,1.4,1.3,2.6,2.7,2.6h14.6c1.1,0,2.4-0.8,2.5-1.9c0.1-0.9,0.1-1.8,0.2-2.6c0-0.8,0.1-1.5,0.2-2.3H21.2z"/>
		</g>
		<g>
			<path class="st2" d="M40.5,39.8c-2.4,0-4.8,0-7.2,0c-0.3,0-0.6,0-0.9,0c0-4.5,0-8.9,0-13.4c14,0,27.9,0,41.8,0
				c0,13.4,0,26.7,0,40.2c-10.3,0-20.6,0-31,0c0-1.6,0-3.2,0-4.8c0-6.4,0-12.8,0-19.2C43.3,40.8,42.3,39.8,40.5,39.8z"/>
			<path class="st2" d="M74.6,67H42.8V42.6c0-0.8-0.1-1.4-0.5-1.8c-0.4-0.4-1-0.6-1.8-0.6H32V26h42.5V67z M43.6,66.2h30.3V26.8H32.8
				v12.7h7.7c1,0,1.8,0.3,2.3,0.9c0.5,0.6,0.8,1.4,0.7,2.3L43.6,66.2z"/>
		</g>
		<g>
			<path class="st2" d="M74.2,73.8c-0.1,1.7-1.6,2.9-3.2,2.9c-9.1,0-18.3,0-27.4,0c-0.1,0-0.2,0-0.3,0c0-2.8,0-5.5,0-8.3
				c10.3,0,20.6,0,31,0C74.3,70.2,74.4,72,74.2,73.8z"/>
			<path class="st2" d="M71,77.1H42.9v-9h31.7v0.4c0,0.4,0,0.9,0,1.3c0,1.3,0,2.7-0.1,4.1C74.4,75.6,72.9,77.1,71,77.1z M43.7,76.3
				H71c1.3,0,2.8-1,2.8-2.6l0,0c0.1-1.3,0.1-2.7,0.1-4c0-0.3,0-0.7,0-1H43.7V76.3z"/>
		</g>
		<path class="st0" d="M53.4,20.5c0.9,0,1.6,0.8,1.6,1.8c0,0.8-0.8,1.6-1.7,1.5c-0.9,0-1.6-0.8-1.6-1.7
			C51.7,21.2,52.4,20.5,53.4,20.5z"/>
		<path class="st0" d="M31.1,43.9c-0.9,0-1.8,0-2.7,0c-0.6,0-1-0.2-1-0.8s0.4-0.8,1-0.8c1.9,0,3.7,0,5.6,0c0.5,0,1,0.3,1,0.8
			c0,0.6-0.5,0.8-1,0.8C33,44,32,43.9,31.1,43.9L31.1,43.9z"/>
		<path class="st0" d="M53.4,69.1c1.6,0,2.9,1.3,2.9,2.9s-1.4,3-3,2.9c-1.6,0-2.9-1.4-2.9-3C50.4,70.4,51.8,69.1,53.4,69.1z
			 M54.6,72.1c0-0.7-0.6-1.3-1.3-1.3s-1.2,0.6-1.2,1.2c0,0.7,0.5,1.2,1.2,1.3C54,73.3,54.6,72.8,54.6,72.1z"/>
		<path class="st0" d="M33.7,75.4c0,1.4-1.1,2.5-2.5,2.5c-1.4,0-2.6-1.1-2.6-2.5s1.1-2.6,2.5-2.5C32.5,72.9,33.6,74,33.7,75.4z
			 M31.3,74.5c-0.1,0-0.2,0-0.3,0c-0.2,0.3-0.6,0.6-0.6,0.9c-0.1,0.5,0.2,0.8,0.7,0.8s0.9-0.3,0.8-0.8
			C31.9,75.1,31.5,74.8,31.3,74.5z"/>
	</g>
</g>
</svg>
