<?xml version="1.0" encoding="utf-8"?>
<!-- Generator: Adobe Illustrator 20.1.0, SVG Export Plug-In . SVG Version: 6.00 Build 0)  -->
<svg version="1.1" id="Layer_1" xmlns="http://www.w3.org/2000/svg" xmlns:xlink="http://www.w3.org/1999/xlink" x="0px" y="0px"
	 viewBox="0 0 100 100" style="enable-background:new 0 0 100 100;" xml:space="preserve">
<style type="text/css">
	.st0{fill:#E99574;}
	.st1{fill:#757271;}
	.st2{fill:#F2F2EE;}
</style>
<g>
	<g>
		<circle class="st0" cx="50" cy="50" r="33.7"/>
		<path class="st1" d="M50,84.6c-19.1,0-34.6-15.5-34.6-34.6c0-19.1,15.5-34.6,34.6-34.6c19.1,0,34.6,15.5,34.6,34.6
			C84.6,69.1,69.1,84.6,50,84.6z M50,17.2c-18.1,0-32.8,14.7-32.8,32.8c0,18.1,14.7,32.8,32.8,32.8S82.8,68.1,82.8,50
			C82.8,31.9,68.1,17.2,50,17.2z"/>
	</g>
	<g>
		<path class="st1" d="M91.9,29.6c-0.1-0.2-0.4-0.3-0.7-0.3c-5-0.4-10.1-0.7-15.1-1.1c-1.9-0.1-3.9-0.3-5.8-0.4s-3.9-0.3-5.8-0.4
			c-2.4-0.2-4.8-0.3-7.3-0.5c-2.4-0.2-4.8-0.3-7.2-0.5c-1.9-0.1-3.9-0.3-5.8-0.4c-2-0.1-4-0.3-6-0.4c-1.7-0.1-3.4-0.2-5.1-0.4
			c-3.2-0.2-6.4-0.5-9.7-0.7c-1-0.1-1.6-0.5-2-1.5c-0.5-1.4-1-2.8-1.6-4.2c-0.4-1.2-0.9-2.4-1.3-3.6c-0.3-0.7-0.6-1-1.3-1.1
			c-1.5-0.2-3-0.3-4.5-0.5c-1.2-0.1-2.4-0.3-3.5-0.4c-0.8-0.1-1.1,0.5-1.1,0.9C7.9,15,8,15.8,8,16.6s0.3,1.1,1.2,1.2
			c0.8,0.1,1.5,0.2,2.3,0.4c1.6,0.2,3.2,0.5,4.8,0.7c1.2,0.1,1.8,0.7,2.2,1.8c2.3,7,4.6,14.1,7,21.1c2.1,6.3,4.2,12.6,6.2,18.9
			l0.3,0.8c0.4,1.3,0.9,2.6,1,3.9c0.3,3.7-1.8,6.4-3.7,8.4c-0.7,0.7-1.5,1-2.5,0.9c-0.7-0.1-1.3,0-1.9,0.1c-3.1,0.8-5,3.7-4.5,7
			c0.5,2.9,3.3,5.1,6.5,4.9c3.1-0.3,5.5-2.9,5.4-6.1c0-0.7-0.2-1.3-0.3-2c-0.1-0.4-0.2-0.7-0.2-1.1l-0.2-0.9H66l-0.1,0.9
			c-0.1,0.4-0.1,0.8-0.2,1.1c-0.2,0.8-0.3,1.5-0.3,2.1c0,2.5,1.1,4.3,3.4,5.4s4.5,0.8,6.5-0.8c1.9-1.6,2.6-3.6,2-6.2
			c-0.7-2.8-3-4.5-6.2-4.5H60.2H42.9l1.1-1.3c2.2-2.5,4.1-5.3,5.9-8.5c0.2-0.4,0.7-0.7,1.1-0.8c0.5-0.1,0.9-0.1,1.4-0.2l5.7-0.5
			c2.7-0.2,5.5-0.5,8.2-0.7c2.4-0.2,4.8-0.4,7.3-0.6c2.9-0.3,5.7-0.5,8.6-0.8c1.1-0.1,1.2-0.2,1.5-1.1c1.3-4.4,2.6-8.8,3.8-13.3
			l0.8-2.8c1.3-4.5,2.6-8.9,3.9-13.4C92.1,30.3,92.1,29.9,91.9,29.6z M47,65.3c0,0.1,0,0.4-0.1,0.6c-1.7,2.7-3.7,5.5-6.5,7.6
			c-1.1,0.8-2.2,1.1-3.4,1.1c-0.1,0-0.2,0-0.3,0c-0.8,0-1.7,0-2.6,0c-0.4,0-0.9,0-1.3,0h-1.5l0.9-1.2c1.7-2.3,2.6-4.7,2.8-7.4v-0.7
			l12.1-1.1L47,65.3z"/>
		<path class="st2" d="M26.3,77.3L26.3,77.3L26.3,77.3z"/>
		<path class="st2" d="M71.3,77.3L71.3,77.3L71.3,77.3z"/>
		<path class="st2" d="M26.3,84.8h-0.1c-1.1,0-2.1-0.5-2.9-1.3s-1.2-1.9-1.1-2.9c0.1-2.2,2-4.1,4.2-4.1h0.1c2.3,0,4.1,2,4.1,4.3
			C30.4,83.1,28.6,84.8,26.3,84.8z"/>
		<path class="st2" d="M68.4,77.7c0.8-0.8,1.8-1.2,2.9-1.2l0,0c1.1,0,2.2,0.5,3,1.3s1.2,1.9,1.2,3c-0.1,2.2-1.9,4.1-4.2,4.1
			c-2.3,0-4.1-1.9-4.2-4.1C67.1,79.6,67.6,78.5,68.4,77.7z"/>
		<path class="st2" d="M80.4,33.3c0-0.2,0.1-0.3,0.1-0.5c0.1-0.3,0.1-0.5,0.1-0.7c0-1.2,0.7-1.7,1.9-1.6c1.3,0.1,2.5,0.2,3.8,0.3
			c0.6,0,1.2,0.1,1.8,0.1c0.2,0,0.3,0,0.5,0.1l1.1,0.2l-0.6,2.1c-0.5,1.6-0.9,3.2-1.4,4.8c-0.2,0.5-0.8,1-1.3,1c-1.1,0-2.2,0-3.4,0
			h-3.7L80.4,33.3z"/>
		<path class="st2" d="M80,41c1.2,0,2.4,0,3.6,0H87l-0.7,2.4c-0.5,1.8-1,3.6-1.5,5.3c-0.2,0.5-0.8,0.9-1.3,0.9c-0.9,0-1.8,0-2.7,0
			h-3.3l0.4-2.3c0.3-1.7,0.6-3.5,1-5.2C79,41.6,79.4,41,80,41z"/>
		<path class="st2" d="M66.8,29.4L79,30.3l-0.3,2c-0.1,0.9-0.3,1.7-0.4,2.6l-0.1,0.5c-0.1,0.8-0.3,1.7-0.5,2.5
			C77.6,38.3,77,39,76.4,39c-1.9,0-3.8,0-5.7,0h-4.4L66.8,29.4z"/>
		<path class="st2" d="M50.9,41.6c0.3,2.2,0.5,4.4,0.8,6.6l0.3,2.5l-1.5,0.1c-0.5,0-1,0.1-1.5,0.1c-0.8,0-1.5,0.1-2.3,0.1
			c-1.1,0-2.3,0.1-3.4,0.1c-0.1,0-0.1,0-0.2,0c-1.4,0-1.7-1.1-1.7-1.5c-0.4-2-0.9-4-1.4-6l-0.8-3.2H44c1.9,0,3.7,0,5.6,0
			C50,40.4,50.8,41,50.9,41.6z"/>
		<path class="st2" d="M38.2,27.5c0.7,0,1.4,0.1,2,0.1c0.9,0.1,1.8,0.1,2.6,0.2c1.6,0.1,3.3,0.2,4.9,0.3c1.1,0.1,1.6,0.6,1.7,1.6
			c0.2,1.7,0.4,3.3,0.6,5l0.3,2.4c0,0.1,0,0.3,0,0.4v1h-1.7l-7.9-0.1c-1.8,0-2.1-0.3-2.5-2L36.5,29c0-0.2-0.1-0.3-0.1-0.5l-0.1-1.1
			L38.2,27.5z"/>
		<path class="st2" d="M26,37.1c-0.9-2.7-1.8-5.4-2.6-8.1L23,27.8c-0.1-0.2-0.1-0.3-0.1-0.4l-0.1-1l2.3,0.2c1.6,0.1,3.3,0.2,4.9,0.3
			h0.6c0.8,0.1,1.6,0.1,2.5,0.2c0.5,0.1,1.2,0.5,1.3,1.1c0.6,2.4,1.1,4.8,1.7,7.2l0.6,2.8h-4.3c-0.7,0-1.5,0-2.2,0
			c-0.8,0-1.8,0-2.8-0.1C26.9,38.1,26.2,37.7,26,37.1z"/>
		<path class="st2" d="M29.9,49c-0.8-2.4-1.5-4.7-2.3-7c-0.1-0.2-0.1-0.4-0.2-0.6l-0.3-1.3h3.4c0.5,0,1,0,1.5,0h0.4
			c1.1,0,2.3,0,3.5,0.1c0.5,0,1.3,0.4,1.4,1c0.6,2.6,1.2,5.1,1.8,7.7l0.2,1c0,0.2,0,0.4,0,0.5l-0.1,0.7L37,51.3
			c-1.2,0.1-2.4,0.1-3.6,0.2c-0.3,0-0.6,0-0.8,0C30.7,51.5,30.5,50.8,29.9,49z"/>
		<path class="st2" d="M32.2,56.1l-0.9-2.7l2.8-0.1c1.3-0.1,2.5-0.1,3.8-0.1c0.2,0,0.4,0,0.6,0c1.7,0,1.9,0.8,2.3,2.3
			c0.3,1.5,0.7,2.9,1,4.4l0.7,3l-4.1,0.4c-0.8,0.1-1.7,0.2-2.5,0.2l0,0c-0.5,0-1.3-0.3-1.5-0.9C33.6,60.4,32.9,58.3,32.2,56.1z"/>
		<path class="st2" d="M53.2,61v0.8L51.5,62c-0.8,0.1-1.6,0.2-2.4,0.2c-1.2,0.1-2.3,0.2-3.5,0.3l0,0c-0.5,0-1.3-0.3-1.5-0.9
			c-0.5-2-1-4.1-1.5-6.2L42.1,53l2.1-0.1c0.7,0,1.4-0.1,2.1-0.1l4.7-0.2c1.2,0,1.4,0.9,1.5,1.3c0.2,1.4,0.3,2.8,0.5,4.2l0.3,2.5
			C53.2,60.7,53.2,60.9,53.2,61z"/>
		<path class="st2" d="M63.8,54.2c0,0.9-0.1,1.7-0.1,2.5v0.6c0,0.7-0.1,1.5-0.1,2.2c0,0.9-0.5,1.5-1.4,1.6l-1.9,0.1
			c-1.3,0.1-2.5,0.2-3.8,0.3l0,0c-0.5,0-1.3-0.4-1.4-1.1c-0.3-1.9-0.5-3.7-0.7-5.7l-0.3-2.3l9.8-0.4L63.8,54.2z"/>
		<polygon class="st2" points="64,50.3 53.9,50.7 52.7,40.7 64.4,40.7 		"/>
		<path class="st2" d="M64.9,31.1c-0.1,1.9-0.2,3.9-0.3,6.1c0,0.4,0,1.7-1.6,1.7h-0.1c-1.5,0-3.1-0.1-4.6-0.1s-3-0.1-4.5-0.1
			c-0.5,0-1.4-0.5-1.5-1.2c-0.3-2.2-0.6-4.3-0.8-6.5l-0.1-1.2c0-0.2,0-0.3,0-0.4l0.1-0.9l5.1,0.4c2.2,0.2,4.4,0.3,6.6,0.4
			c0.4,0,1,0.1,1.3,0.5C64.9,30.1,64.9,30.7,64.9,31.1z"/>
		<path class="st2" d="M74.9,53.2l-0.1,0.3c-0.3,1.8-0.7,3.6-1,5.5c-0.1,0.5-0.7,1.2-1.3,1.2c-1.6,0.2-3.2,0.3-4.8,0.4l-2.4,0.2
			l0.4-8.7l9-0.4l0.1,0.7c0,0.1,0,0.1,0,0.2C74.9,52.7,75,53,74.9,53.2z"/>
		<polygon class="st2" points="65.8,50.2 66.3,40.9 77.2,40.9 75.6,49.8 		"/>
		<path class="st2" d="M80.6,59.5c-0.9,0.1-1.8,0.2-2.8,0.3L75.7,60l0.4-2.4c0.3-1.7,0.6-3.3,0.9-4.9c0.1-0.6,0.9-1,1.3-1
			c0.8,0,1.5,0,2.3,0h3.2l-0.3,1.2c-0.1,0.3-0.1,0.5-0.2,0.8l-0.2,0.8c-0.4,1.3-0.7,2.6-1.1,3.8C81.8,58.8,81.3,59.4,80.6,59.5z"/>
	</g>
</g>
</svg>
