<?xml version="1.0" encoding="utf-8"?>
<!-- Generator: Adobe Illustrator 20.1.0, SVG Export Plug-In . SVG Version: 6.00 Build 0)  -->
<svg version="1.1" id="Layer_1" xmlns="http://www.w3.org/2000/svg" xmlns:xlink="http://www.w3.org/1999/xlink" x="0px" y="0px"
	 viewBox="0 0 100 100" style="enable-background:new 0 0 100 100;" xml:space="preserve">
<style type="text/css">
	.st0{fill:#E99574;}
	.st1{fill:#757271;}
	.st2{fill:#F2F2EE;}
	.st3{clip-path:url(#SVGID_2_);fill:#757271;}
</style>
<g>
	<circle class="st0" cx="50" cy="50" r="33.7"/>
	<path class="st1" d="M50,84.6c-19.1,0-34.6-15.5-34.6-34.6c0-19.1,15.5-34.6,34.6-34.6c19.1,0,34.6,15.5,34.6,34.6
		C84.6,69.1,69.1,84.6,50,84.6z M50,17.2c-18.1,0-32.8,14.7-32.8,32.8c0,18.1,14.7,32.8,32.8,32.8S82.8,68.1,82.8,50
		C82.8,31.9,68.1,17.2,50,17.2z"/>
</g>
<g>
	<path class="st1" d="M49.1,72.9c-3.4,0-6.8,0-10.1,0c-1.1,0-1.5-0.4-1.4-1.5c0.1-1.5-0.1-3.1,0-4.6c0.2-1.8-0.4-3.3-1.4-4.8
		c-2.3-3.2-4.4-6.4-6.7-9.6c-10-13.7-3.4-33.5,12.7-38.3c10.2-3,21.3,0.9,27.2,9.7c6,8.9,5.6,20.5-0.8,29.2
		c-2.5,3.3-4.8,6.8-7.1,10.3C61,64,60.8,65,60.8,65.8c-0.1,1.8-0.1,3.7,0,5.5c0,1.1-0.3,1.5-1.4,1.5C56,72.9,52.5,72.9,49.1,72.9z
		 M53.2,71.4c2,0,3.7,0,5.5,0c0.2,0,0.6-0.6,0.6-0.9c0.1-1.5-0.1-3.1,0.1-4.6c0.1-1.1,0.3-2.3,0.9-3.1c2.5-3.8,5-7.5,7.7-11.2
		c5.4-7.6,5.8-17.8,0.9-25.8c-5-8-14.3-12.3-23.3-10.8c-17.3,2.9-25.2,23-14.5,37.2c2.2,2.9,4.1,6,6.3,8.9c1.3,1.8,2,3.8,1.7,6
		c-0.1,1.1-0.1,2.2,0,3.2c0,0.3,0.4,0.9,0.6,0.9c1.8,0.1,3.5,0,5.5,0c-1.8-8.5-3.6-16.8-5.4-25.1c1.1-0.6,1.7-0.4,1.9,0.8
		c0.1,1.1,0.5,2.1,0.8,3.4c1.6-1,3-1.9,4.6-3c0.3,1.2,0.7,2.3,1,3.4c0.1,0,0.2,0,0.3,0c0.8-1.9,1.6-3.7,2.5-5.9
		c0.8,2.3,1.5,4.2,2.2,6.1c2.2-0.5,3.8-1.3,3.8-3.8c0-0.3,0.1-0.7,0.2-0.9c0.1-0.2,0.5-0.4,0.7-0.3c0.2,0,0.5,0.3,0.6,0.5
		s0,0.5-0.1,0.8c-1.1,5.1-2.2,10.1-3.2,15.2C54.4,65.4,53.8,68.2,53.2,71.4z M48.1,54.2c-0.1,0-0.2,0-0.3,0c-0.4-1.6-0.9-3.2-1.4-5
		c-1.1,0.7-1.9,1.3-2.8,1.9c-0.7,0.4-0.9,1-0.7,1.8c1.1,5.1,2.2,10.3,3.4,15.4c0.7,3.3,0.7,3.2,4.1,3.3c1.1,0,1.4-0.4,1.7-1.4
		c0.8-4.2,1.8-8.4,2.6-12.5c0.4-2,0.8-4.1,1.3-6.4c-1.3,0.5-2.4,1-3.4,1.4c-0.6-1.5-1.1-2.9-1.7-4.6C49.7,50.3,48.9,52.2,48.1,54.2z
		"/>
	<path class="st1" d="M38.8,82.3c0.4,0,0.8-0.1,1.3-0.1c6.1,0,12.3,0,18.4,0c1.2,0,1.6,0.4,1.4,1.6c-0.4,2.6-1.8,4.5-4.3,5.4
		c-0.7,0.3-1.3,0.6-1.6,1.4c-0.9,1.9-2.5,2.9-4.6,3c-2.2,0.1-3.8-1-4.8-2.9c-0.4-0.8-0.9-1.2-1.7-1.5C40,88.1,38.2,85.2,38.8,82.3z
		 M40.3,83.9c0.1,2.4,2.1,4.2,4.7,4.2c2.8,0,5.5,0.1,8.3,0c1.1-0.1,2.2-0.6,3.2-1.1c1-0.6,1.7-1.7,1.6-3.1
		C52.1,83.9,46.2,83.9,40.3,83.9z M52.6,89.7c-2.3,0-4.4,0-6.7,0c0.7,1.6,1.8,2.3,3.3,2.3C50.7,92,51.8,91.4,52.6,89.7z"/>
	<path class="st1" d="M49.1,80.8c-2.8,0-5.6,0-8.4,0c-2.1,0-3.5-1.3-3.5-3.3c0-1.9,1.4-3.2,3.4-3.2c5.6,0,11.3,0,16.9,0
		c2.1,0,3.5,1.3,3.5,3.2c0,1.9-1.4,3.2-3.5,3.2C54.8,80.9,52,80.8,49.1,80.8z M49.2,79.4L49.2,79.4c2.8,0,5.7,0,8.5,0
		c1.2,0,2-0.8,1.9-1.8c-0.1-1.1-0.8-1.7-1.9-1.7c-5.7,0-11.5,0-17.2,0c-1,0-1.6,0.5-1.9,1.4c-0.2,1.1,0.7,2,2.1,2.1
		C43.6,79.4,46.4,79.4,49.2,79.4z"/>
	<path class="st2" d="M53.2,71.4c0.7-3.2,1.3-6.1,1.9-8.9c1.1-5.1,2.2-10.1,3.2-15.2c0.1-0.3,0.2-0.6,0.1-0.8
		C58.3,46.3,58,46,57.8,46c-0.2,0-0.6,0.1-0.7,0.3c-0.2,0.2-0.2,0.6-0.2,0.9c0,2.4-1.6,3.3-3.8,3.8c-0.7-1.9-1.4-3.8-2.2-6.1
		c-0.9,2.2-1.7,4.1-2.5,5.9c-0.1,0-0.2,0-0.3,0c-0.3-1.1-0.6-2.1-1-3.4c-1.6,1-3,1.9-4.6,3c-0.3-1.3-0.6-2.3-0.8-3.4
		c-0.2-1.2-0.8-1.4-1.9-0.8c1.8,8.3,3.6,16.6,5.4,25.1c-2,0-3.7,0-5.5,0c-0.2,0-0.6-0.6-0.6-0.9c-0.1-1.1-0.1-2.2,0-3.2
		c0.2-2.3-0.4-4.2-1.7-6c-2.1-2.9-4.1-6-6.3-8.9C20.4,38,28.3,17.9,45.6,15c9-1.5,18.3,2.8,23.1,10.7c4.9,8.1,4.5,18.2-0.9,25.8
		c-2.6,3.7-5.2,7.4-7.7,11.2c-0.6,0.9-0.8,2.1-0.9,3.1c-0.1,1.5,0,3.1-0.1,4.6c0,0.3-0.4,0.9-0.6,0.9C56.9,71.5,55.2,71.4,53.2,71.4
		z"/>
	<path class="st2" d="M48.1,54.2c0.8-2,1.6-3.9,2.6-6.2c0.6,1.7,1.2,3,1.7,4.6c1.1-0.4,2.1-0.9,3.4-1.4c-0.5,2.3-0.8,4.4-1.3,6.4
		c-0.9,4.2-1.8,8.3-2.6,12.5c-0.2,1-0.6,1.4-1.7,1.4c-3.3,0-3.3,0-4.1-3.3c-1.1-5.1-2.2-10.3-3.4-15.4c-0.2-0.8-0.1-1.3,0.7-1.8
		c0.9-0.5,1.8-1.2,2.8-1.9c0.5,1.8,1,3.4,1.4,5C47.9,54.2,48,54.2,48.1,54.2z"/>
	<path class="st2" d="M40.3,83.9c5.9,0,11.8,0,17.8,0c0,1.4-0.6,2.4-1.6,3.1c-0.9,0.6-2.1,1.1-3.2,1.1c-2.8,0.2-5.5,0.1-8.3,0
		C42.5,88.1,40.4,86.2,40.3,83.9z"/>
	<path class="st0" d="M52.6,89.7c-0.7,1.7-1.9,2.3-3.4,2.3s-2.6-0.7-3.3-2.3C48.1,89.7,50.2,89.7,52.6,89.7z"/>
	<path class="st2" d="M49.2,79.4c-2.8,0-5.6,0-8.4,0c-1.4,0-2.3-0.9-2.1-2.1c0.2-1,0.9-1.4,1.9-1.4c5.7,0,11.5,0,17.2,0
		c1.1,0,1.8,0.6,1.9,1.7c0.1,1-0.7,1.8-1.9,1.8C54.9,79.4,52.1,79.4,49.2,79.4L49.2,79.4z"/>
	<g>
		<g>
			<defs>
				<ellipse id="SVGID_1_" cx="49.1" cy="36.8" rx="37.6" ry="36.2"/>
			</defs>
			<clipPath id="SVGID_2_">
				<use xlink:href="#SVGID_1_"  style="overflow:visible;"/>
			</clipPath>
			<path class="st3" d="M49.6,2c0-1.7,0-3.4,0-5.1c0-0.3,0.3-0.6,0.5-1c0.2,0.3,0.7,0.6,0.7,0.9c0.1,3.4,0.1,6.8,0,10.2
				c0,0.3-0.4,0.6-0.6,0.9c-0.2-0.3-0.6-0.7-0.6-1C49.5,5.3,49.6,3.6,49.6,2z M87.3,19.4c-0.5,0-1-0.2-1.3,0c-2.9,1.5-5.8,3-8.7,4.6
				c-0.3,0.2-0.4,0.6-0.7,1c0.4,0,0.9,0.3,1.3,0.1c2.9-1.5,5.8-3,8.7-4.6c0.3-0.2,0.5-0.4,0.8-0.6C87.4,19.7,87.3,19.5,87.3,19.4z
				 M12.8,40.8c1.7-0.1,3.4-0.2,5.2-0.4c0.3,0,0.6-0.4,1-0.7c-0.4-0.2-0.7-0.5-1.1-0.5c-3.3,0.2-6.6,0.3-9.9,0.6
				c-0.3,0-0.6,0.4-1,0.7C7.4,40.7,7.7,41,8.1,41C9.7,41,11.2,40.9,12.8,40.8L12.8,40.8z M72.6,1.6c-0.3,0.1-0.8,0.3-0.9,0.6
				C70,5,68.3,7.9,66.6,10.7c-0.2,0.3,0,0.8,0,1.3c0.4-0.2,0.9-0.3,1.1-0.7c1.7-2.8,3.4-5.6,5.1-8.4c0.1-0.2,0.2-0.5,0.4-0.8
				C72.9,2,72.7,1.6,72.6,1.6z M25.8,1.6c0.1,0.5,0,1,0.3,1.4c1.6,2.8,3.3,5.6,5,8.3c0.2,0.3,0.7,0.5,1.1,0.7c0-0.4,0.2-1,0-1.3
				c-1.6-2.8-3.3-5.6-5-8.5c-0.2-0.3-0.3-0.8-0.5-1.1C26.4,1.3,26.1,1.4,25.8,1.6z M15.5,62.7c2.5-1.8,5.1-3.6,7.6-5.4
				c0.4-0.3,0.5-0.9,0.7-1.3c-0.5,0.1-1,0-1.4,0.3c-2.6,1.8-5.1,3.6-7.6,5.4c-0.3,0.2-0.6,0.4-0.7,0.6c-0.1,0.3,0.1,0.7,0.2,1.1
				C14.9,63.1,15.2,62.9,15.5,62.7z M83.6,39.4c-0.9-0.1-1.8-0.2-2.7-0.2c-0.4,0-0.8,0.3-1.2,0.4c0.4,0.3,0.8,0.7,1.2,0.8
				c3.1,0.3,6.3,0.5,9.4,0.6c0.4,0,0.9-0.3,1.3-0.5c-0.4-0.2-0.8-0.7-1.2-0.7C88.2,39.6,85.9,39.5,83.6,39.4L83.6,39.4z M11.4,19.5
				c0.2,0.3,0.3,0.7,0.6,0.9c2.9,1.6,5.7,3.1,8.6,4.6c0.4,0.2,0.9,0,1.4,0c-0.3-0.3-0.5-0.8-0.8-1c-2.8-1.5-5.7-3-8.5-4.5
				c-0.2-0.1-0.5-0.2-0.8-0.4C11.8,19.2,11.4,19.5,11.4,19.5z M74.8,56.1c0.2,0.4,0.3,0.8,0.6,1.1c2.6,1.9,5.3,3.8,8,5.6
				c0.3,0.2,0.9,0.2,1.3,0.2c-0.2-0.4-0.3-1-0.6-1.2c-2.6-1.9-5.2-3.7-7.8-5.6c-0.3-0.2-0.5-0.3-0.9-0.5
				C75.1,55.9,74.8,56,74.8,56.1z"/>
		</g>
	</g>
</g>
</svg>
