<?xml version="1.0" encoding="utf-8"?>
<!-- Generator: Adobe Illustrator 20.1.0, SVG Export Plug-In . SVG Version: 6.00 Build 0)  -->
<svg version="1.1" id="Layer_1" xmlns="http://www.w3.org/2000/svg" xmlns:xlink="http://www.w3.org/1999/xlink" x="0px" y="0px"
	 viewBox="0 0 100 100" style="enable-background:new 0 0 100 100;" xml:space="preserve">
<style type="text/css">
	.st0{fill:#E99574;}
	.st1{fill:#757271;}
	.st2{fill:#F2F2EE;}
</style>
<g>
	<circle class="st0" cx="50" cy="50" r="33.7"/>
	<path class="st1" d="M50,84.6c-19.1,0-34.6-15.5-34.6-34.6c0-19.1,15.5-34.6,34.6-34.6c19.1,0,34.6,15.5,34.6,34.6
		C84.6,69.1,69.1,84.6,50,84.6z M50,17.2c-18.1,0-32.8,14.7-32.8,32.8c0,18.1,14.7,32.8,32.8,32.8S82.8,68.1,82.8,50
		C82.8,31.9,68.1,17.2,50,17.2z"/>
</g>
<g>
	<path class="st1" d="M29.7,16.4c0-0.5,0-0.8,0-1.2c0-2.2,1.2-3.4,3.4-3.4c7,0,14,0,21,0c5.2,0,4.4-0.2,8.1,3.4
		c4.5,4.5,9,9,13.5,13.5c1.1,1.1,1.6,2.3,1.6,3.8c0,13.3,0,26.6,0,39.9c0,2.5-0.6,3.3-3.1,4c0,0.4,0,0.8,0,1.2c0,2-1.3,3.3-3.3,3.3
		c-7.1,0-14.2,0-21.3,0c-7,0-13.9,0-20.9,0c-2.4,0-3.6-1.2-3.6-3.5c0-19,0-38,0-57c0-2.9,1-3.9,3.8-3.9
		C29.1,16.5,29.3,16.5,29.7,16.4z M31.1,44.4c0,9.7,0,19.4,0,29.1c0,1.2,0.1,1.4,1.3,1.4c13.8,0,27.5,0,41.3,0c1.4,0,2.1-0.6,2.1-2
		c0-13.2,0-26.5,0-39.7c0-1.2-0.2-1.3-1.3-1.3c-4.5,0-9,0-13.5,0c-2.4,0-3.6-1.2-3.6-3.5c0-4.5,0-9,0-13.4c0-1.3-0.1-1.5-1.4-1.5
		c-7.5,0-14.9,0-22.4,0c-1.9,0-2.4,0.5-2.4,2.4C31.1,25.3,31.1,34.9,31.1,44.4z M29.7,18c-0.4,0-0.6,0-0.9,0c-1.7,0-2.2,0.6-2.2,2.2
		c0,19,0,37.9,0,56.9c0,1.8,0.5,2.3,2.3,2.3c8.3,0,16.7,0,25,0c5.6,0,11.1,0,16.7,0c1.5,0,2.1-0.6,2.1-2.1c0-0.3,0-0.6,0-1
		c-0.5,0-0.9,0-1.2,0c-13.1,0-26.2,0-39.3,0c-2,0-2.4-0.4-2.4-2.4c0-18.3,0-36.5,0-54.8C29.7,18.8,29.7,18.4,29.7,18z M58.8,14.7
		c0,0.1,0,0.4,0,0.7c0,4.3,0,8.5,0,12.8c0,1.5,0.6,2.1,2.1,2.1c4.3,0,8.5,0,12.8,0c0.3,0,0.6,0,0.7,0C69.2,25.1,64,19.9,58.8,14.7z"
		/>
	<path class="st2" d="M31.1,44.4c0-9.5,0-19.1,0-28.6c0-2,0.5-2.4,2.4-2.4c7.5,0,14.9,0,22.4,0c1.3,0,1.4,0.1,1.4,1.5
		c0,4.5,0,9,0,13.4c0,2.3,1.2,3.5,3.6,3.5c4.5,0,9,0,13.5,0c1.2,0,1.3,0.2,1.3,1.3c0,13.2,0,26.5,0,39.7c0,1.4-0.6,2-2.1,2
		c-13.8,0-27.5,0-41.3,0c-1.1,0-1.3-0.2-1.3-1.4C31.1,63.8,31.1,54.1,31.1,44.4z M54.2,48.7c-4.6,0-9.3,0-13.9,0
		c-0.3,0-0.6-0.1-0.8,0c-0.3,0.2-0.6,0.5-0.6,0.7s0.4,0.5,0.6,0.7c0.2,0.1,0.4,0,0.7,0c9.3,0,18.7,0,28,0c0.2,0,0.4,0.1,0.6,0
		c0.3-0.2,0.7-0.5,0.7-0.7c-0.1-0.3-0.4-0.6-0.7-0.8c-0.2-0.1-0.4,0-0.7,0C63.5,48.7,58.9,48.7,54.2,48.7z M54.1,54.8L54.1,54.8
		c4.6,0,9.3,0,13.9,0c0.3,0,0.7,0.1,0.9-0.1c0.2-0.1,0.5-0.5,0.5-0.7s-0.3-0.5-0.6-0.7c-0.2-0.1-0.5,0-0.8,0c-9.3,0-18.6,0-27.9,0
		c-0.2,0-0.4-0.1-0.5,0c-0.3,0.2-0.6,0.5-0.9,0.7c0.3,0.3,0.6,0.5,0.9,0.7c0.1,0.1,0.4,0,0.6,0C45,54.8,49.5,54.8,54.1,54.8z
		 M51.9,44.1c-3.8,0-7.5,0-11.3,0c-0.3,0-0.6-0.1-0.8,0c-0.3,0.2-0.6,0.5-0.9,0.7c0.3,0.2,0.6,0.5,1,0.7c0.1,0.1,0.3,0,0.4,0
		c7.8,0,15.5,0,23.3,0c0.1,0,0.3,0,0.4,0c0.3-0.2,0.6-0.5,1-0.7c-0.3-0.3-0.6-0.5-0.9-0.7c-0.1-0.1-0.3,0-0.5,0
		C59.6,44.1,55.8,44.1,51.9,44.1z M51.9,62.6c-0.8,0-1.7,0-2.5,0c-3.1,0-6.1,0-9.2,0c-0.6,0-1.3-0.1-1.3,0.8c0,0.7,0.7,0.7,1.2,0.7
		c7.8,0,15.6,0,23.4,0c0.3,0,0.6,0.1,0.8,0c0.2-0.1,0.6-0.5,0.6-0.7c0-0.3-0.3-0.5-0.6-0.7c-0.2-0.1-0.4,0-0.7,0
		C59.7,62.6,55.8,62.6,51.9,62.6z M50.5,58c-3.4,0-6.8,0-10.2,0c-0.2,0-0.5-0.1-0.7,0c-0.3,0.2-0.6,0.5-0.7,0.7
		c0,0.2,0.4,0.5,0.6,0.7c0.2,0.1,0.4,0,0.7,0c6.7,0,13.5,0,20.2,0c0.2,0,0.5,0.1,0.7,0c0.3-0.2,0.7-0.5,0.6-0.7
		c-0.1-0.3-0.4-0.6-0.7-0.7c-0.2-0.1-0.4,0-0.7,0C57.1,58,53.8,58,50.5,58z M42.6,30.3c1,0,1.9,0.1,2.9,0c0.4,0,0.7-0.5,1-0.7
		c-0.3-0.2-0.6-0.7-1-0.7c-1.9-0.1-3.8-0.1-5.7,0c-0.3,0-0.9,0.4-0.9,0.7c-0.1,0.6,0.4,0.8,1,0.7C40.8,30.2,41.7,30.3,42.6,30.3z
		 M42.6,34.9L42.6,34.9c1,0,1.9,0.1,2.9,0c0.4,0,0.7-0.5,1-0.7c-0.3-0.2-0.6-0.7-1-0.7c-1.9-0.1-3.8-0.1-5.7,0c-0.3,0-0.6,0.4-1,0.7
		c0.3,0.3,0.7,0.7,1,0.7C40.8,34.9,41.7,34.9,42.6,34.9z"/>
	<path class="st2" d="M29.7,18c0,0.5,0,0.8,0,1.2c0,18.3,0,36.5,0,54.8c0,2,0.4,2.4,2.4,2.4c13.1,0,26.2,0,39.3,0c0.4,0,0.8,0,1.2,0
		c0,0.4,0,0.7,0,1c0,1.5-0.6,2.1-2.1,2.1c-5.6,0-11.1,0-16.7,0c-8.3,0-16.7,0-25,0c-1.8,0-2.3-0.5-2.3-2.3c0-19,0-37.9,0-56.9
		c0-1.7,0.6-2.2,2.2-2.2C29,18,29.3,18,29.7,18z"/>
	<path class="st0" d="M58.8,14.7c5.2,5.2,10.4,10.4,15.6,15.6c-0.1,0-0.4,0-0.7,0c-4.3,0-8.5,0-12.8,0c-1.6,0-2.1-0.6-2.1-2.1
		c0-4.3,0-8.5,0-12.8C58.8,15.1,58.8,14.8,58.8,14.7z"/>
	<path class="st1" d="M54.2,48.7c4.6,0,9.3,0,13.9,0c0.2,0,0.5-0.1,0.7,0c0.3,0.2,0.6,0.5,0.7,0.8c0,0.2-0.4,0.5-0.7,0.7
		c-0.1,0.1-0.4,0-0.6,0c-9.3,0-18.7,0-28,0c-0.2,0-0.5,0.1-0.7,0c-0.3-0.2-0.6-0.5-0.6-0.7s0.3-0.5,0.6-0.7c0.2-0.1,0.5,0,0.8,0
		C44.9,48.7,49.6,48.7,54.2,48.7z"/>
	<path class="st1" d="M54.1,54.8c-4.6,0-9.1,0-13.7,0c-0.2,0-0.4,0.1-0.6,0c-0.3-0.2-0.6-0.5-0.9-0.7c0.3-0.2,0.6-0.5,0.9-0.7
		c0.1-0.1,0.3,0,0.5,0c9.3,0,18.6,0,27.9,0c0.3,0,0.6-0.1,0.8,0c0.2,0.1,0.5,0.4,0.6,0.7c0,0.2-0.3,0.6-0.5,0.7
		c-0.3,0.1-0.6,0.1-0.9,0.1C63.4,54.8,58.7,54.8,54.1,54.8L54.1,54.8z"/>
	<path class="st1" d="M51.9,44.1c3.9,0,7.7,0,11.6,0c0.2,0,0.4-0.1,0.5,0c0.3,0.2,0.6,0.5,0.9,0.7c-0.3,0.2-0.6,0.5-1,0.7
		c-0.1,0.1-0.3,0-0.4,0c-7.8,0-15.5,0-23.3,0c-0.1,0-0.3,0-0.4,0c-0.3-0.2-0.6-0.5-1-0.7c0.3-0.3,0.6-0.6,0.9-0.7
		c0.2-0.1,0.5,0,0.8,0C44.3,44.1,48.1,44.1,51.9,44.1z"/>
	<path class="st1" d="M51.9,62.6c3.9,0,7.8,0,11.7,0c0.2,0,0.5-0.1,0.7,0c0.3,0.2,0.6,0.5,0.6,0.7s-0.3,0.5-0.6,0.7
		c-0.2,0.1-0.5,0-0.8,0c-7.8,0-15.6,0-23.4,0c-0.6,0-1.2,0-1.2-0.7c0-0.8,0.7-0.8,1.3-0.8c3.1,0,6.1,0,9.2,0
		C50.2,62.6,51.1,62.6,51.9,62.6z"/>
	<path class="st1" d="M50.5,58c3.3,0,6.7,0,10,0c0.2,0,0.5-0.1,0.7,0c0.3,0.2,0.6,0.5,0.7,0.7c0,0.2-0.4,0.5-0.6,0.7
		c-0.2,0.1-0.4,0-0.7,0c-6.7,0-13.5,0-20.2,0c-0.2,0-0.5,0.1-0.7,0c-0.3-0.2-0.7-0.5-0.6-0.7c0.1-0.3,0.4-0.6,0.7-0.7
		c0.2-0.1,0.4,0,0.7,0C43.7,58,47.1,58,50.5,58z"/>
	<path class="st0" d="M42.6,30.3c-0.9,0-1.8,0-2.7,0c-0.5,0-1.1-0.2-1-0.7c0-0.3,0.6-0.7,0.9-0.7c1.9-0.1,3.8-0.1,5.7,0
		c0.3,0,0.6,0.4,1,0.7c-0.3,0.3-0.7,0.7-1,0.7C44.5,30.3,43.5,30.3,42.6,30.3z"/>
	<path class="st0" d="M42.6,34.9c-0.9,0-1.8,0.1-2.7,0c-0.4,0-0.7-0.5-1-0.7c0.3-0.2,0.6-0.7,1-0.7c1.9-0.1,3.8-0.1,5.7,0
		c0.3,0,0.6,0.4,1,0.7c-0.3,0.3-0.7,0.7-1,0.7C44.5,34.9,43.5,34.9,42.6,34.9L42.6,34.9z"/>
</g>
</svg>
