<?xml version="1.0" encoding="utf-8"?>
<!-- Generator: Adobe Illustrator 20.1.0, SVG Export Plug-In . SVG Version: 6.00 Build 0)  -->
<svg version="1.1" id="Layer_1" xmlns="http://www.w3.org/2000/svg" xmlns:xlink="http://www.w3.org/1999/xlink" x="0px" y="0px"
	 viewBox="0 0 100 100" style="enable-background:new 0 0 100 100;" xml:space="preserve">
<style type="text/css">
	.st0{fill:#E99574;}
	.st1{fill:#757271;}
	.st2{fill:#F2F2EE;}
</style>
<g>
	<circle class="st0" cx="50" cy="50" r="33.7"/>
	<path class="st1" d="M50,84.6c-19.1,0-34.6-15.5-34.6-34.6c0-19.1,15.5-34.6,34.6-34.6c19.1,0,34.6,15.5,34.6,34.6
		C84.6,69.1,69.1,84.6,50,84.6z M50,17.2c-18.1,0-32.8,14.7-32.8,32.8c0,18.1,14.7,32.8,32.8,32.8S82.8,68.1,82.8,50
		C82.8,31.9,68.1,17.2,50,17.2z"/>
</g>
<g>
	<g>
		<path class="st2" d="M9.3,69.7L7,51.3c-0.1-1.1,0.7-2.2,1.8-2.3L90,39.1c1.1-0.1,2.2,0.7,2.3,1.8l2.2,18.4
			c0.1,1.1-0.7,2.2-1.8,2.3l-81.1,9.8C10.5,71.6,9.4,70.8,9.3,69.7z"/>
		<path class="st1" d="M11.3,72.1c-0.6,0-1.1-0.2-1.6-0.5c-0.6-0.4-0.9-1.1-1-1.7L6.4,51.4c-0.1-1.5,0.9-2.9,2.4-3l81.2-9.9
			c0.7-0.1,1.4,0.1,2,0.6c0.6,0.5,1,1.1,1,1.8l2.2,18.4c0.1,1.5-0.9,2.9-2.4,3L11.7,72C11.5,72,11.4,72.1,11.3,72.1z M90.2,39.7
			c0,0-0.1,0-0.1,0L8.9,49.6c-0.7,0.1-1.3,0.8-1.3,1.6l2.3,18.4c0,0.3,0.2,0.7,0.5,0.9c0.3,0.2,0.7,0.3,1.1,0.3L92.6,61
			c0.7-0.1,1.3-0.8,1.3-1.6L91.7,41c0-0.4-0.2-0.7-0.5-0.9C90.9,39.8,90.5,39.7,90.2,39.7z"/>
	</g>
	<path class="st1" d="M85.1,52.7l-1.2-10.4c0-0.2,0.1-0.4,0.3-0.4h0.2c0.2,0,0.4,0.1,0.4,0.3L86,52.6c0,0.2-0.1,0.4-0.3,0.4h-0.2
		C85.3,53,85.1,52.9,85.1,52.7z"/>
	<path class="st1" d="M73.1,49.8l-0.7-6.2c0-0.2,0.1-0.3,0.3-0.4h0.2c0.2,0,0.3,0.1,0.4,0.3l0.7,6.2c0,0.2-0.1,0.3-0.3,0.4h-0.2
		C73.3,50.1,73.2,50,73.1,49.8z"/>
	<path class="st1" d="M61.9,55.7l-1.2-10.4c0-0.2,0.1-0.4,0.3-0.4h0.2c0.2,0,0.4,0.1,0.4,0.3l1.2,10.4c0,0.2-0.1,0.4-0.3,0.4h-0.2
		C62.1,56,61.9,55.9,61.9,55.7z"/>
	<path class="st1" d="M17.4,61.4L16.2,51c0-0.2,0.1-0.4,0.3-0.4h0.2c0.2,0,0.4,0.1,0.4,0.3l1.2,10.4c0,0.2-0.1,0.4-0.3,0.4h-0.2
		C17.6,61.8,17.4,61.6,17.4,61.4z"/>
	<path class="st1" d="M50,52.8l-0.7-6.2c0-0.2,0.1-0.3,0.3-0.4h0.2c0.2,0,0.3,0.1,0.4,0.3l0.7,6.2c0,0.2-0.1,0.3-0.3,0.4h-0.2
		C50.1,53.1,50,52.9,50,52.8z"/>
	<path class="st1" d="M39.7,58.5l-1.2-10.4c0-0.2,0.1-0.4,0.3-0.4H39c0.2,0,0.4,0.1,0.4,0.3l1.2,10.4c0,0.2-0.1,0.4-0.3,0.4h-0.2
		C39.9,58.8,39.8,58.7,39.7,58.5z"/>
	<path class="st1" d="M27.8,55.6l-0.7-6.2c0-0.2,0.1-0.3,0.3-0.4h0.2c0.2,0,0.3,0.1,0.4,0.3l0.7,6.2c0,0.2-0.1,0.3-0.3,0.4h-0.2
		C28,55.9,27.8,55.7,27.8,55.6z"/>
</g>
<g>
	<path class="st1" d="M17.7,87.4c0.3-1.1,0.6-2.2,0.9-3.3c1.1-4.5,2.2-9.1,3.4-13.6c0.2-0.8,0.4-1.6,0.6-2.5
		c0.1-0.3,0.2-0.5,0.4-0.7c2.7-3,5.4-6,8.1-8.9c6.1-6.7,12.2-13.5,18.4-20.2c6.9-7.6,13.8-15.2,20.6-22.8c0.9-1,2.1-1.4,3.4-1.2
		c2.7,0.3,4.9,1.6,6.9,3.2c2.2,1.8,4.1,3.9,5.4,6.5c0.5,1.1,0.9,2.3,0.7,3.6c-0.1,0.7-0.4,1.3-0.8,1.8c-1.9,2.1-3.8,4.1-5.7,6.2
		c-8.5,9.4-17,18.8-25.5,28.2C49.2,69.5,44,75.3,38.7,81.2c-0.4,0.4-0.8,0.6-1.2,0.8c-5.3,1.9-10.6,3.8-15.8,5.7
		c-0.8,0.3-1.5,0.6-2.3,0.8c-0.8,0.3-1,0.2-1.5-0.4C17.8,87.7,17.8,87.5,17.7,87.4z"/>
	<g>
		<path class="st2" d="M65.7,32.3c-11.6,12.7-23,25.4-34.5,38c0.8,0.2,1.5,0.4,2.1,1c0.5,0.6,0.9,1.2,1.4,1.8
			C46,60.7,57.5,48,69,35.3C67.9,34.3,66.8,33.3,65.7,32.3z"/>
		<path class="st2" d="M34.7,73.9l-0.4-0.5c-0.3-0.3-0.5-0.6-0.7-0.9c-0.2-0.3-0.4-0.6-0.7-0.9c-0.5-0.5-1-0.6-1.8-0.8l-0.9-0.2
			l0.6-0.7c5.6-6.1,11.2-12.3,16.7-18.4c5.9-6.5,11.8-13,17.8-19.6l0.4-0.4l4.1,3.7l-0.4,0.4c-11.3,12.5-23,25.4-34.3,37.8
			L34.7,73.9z M32.2,70c0.5,0.2,1,0.4,1.5,0.9c0.3,0.3,0.5,0.6,0.7,1c0.1,0.1,0.2,0.3,0.3,0.4c11-12.1,22.5-24.7,33.5-36.9l-2.5-2.3
			c-5.8,6.4-11.6,12.8-17.4,19.2C42.9,58.2,37.6,64.1,32.2,70z"/>
	</g>
	<g>
		<path class="st2" d="M39.3,77.6c0.2-0.2,0.3-0.3,0.4-0.4c3.9-4.3,7.8-8.6,11.7-12.9c4.5-4.9,8.9-9.9,13.4-14.8
			c2.1-2.4,4.3-4.7,6.4-7.1c0.4-0.4,0.7-0.9,0.6-1.5s-0.2-1.2-0.4-1.7c-0.3-0.8-0.8-1.5-1.1-2.3C58.8,49.6,47.4,62.1,36,74.7
			C37.6,75,38.7,76,39.3,77.6z"/>
		<path class="st2" d="M39.1,78.6l-0.3-0.8c-0.5-1.4-1.5-2.3-2.9-2.6L35,75l0.6-0.7c6-6.6,12-13.2,18-19.8c5.4-6,10.9-12,16.3-18
			l0.6-0.6l0.3,0.8c0.1,0.4,0.3,0.7,0.5,1.1c0.2,0.4,0.4,0.8,0.6,1.2c0.2,0.5,0.3,1.2,0.4,1.8c0.1,0.7-0.1,1.4-0.7,2
			c-1,1.2-2.1,2.4-3.2,3.5c-1.1,1.2-2.1,2.3-3.2,3.5c-2.3,2.5-4.5,4.9-6.7,7.4c-2.2,2.5-4.4,4.9-6.7,7.4L39.1,78.6z M37,74.4
			c1.1,0.4,1.9,1.2,2.5,2.2L51,63.9c2.2-2.4,4.5-4.9,6.7-7.4c2.2-2.5,4.5-5,6.7-7.4c1-1.2,2.1-2.4,3.2-3.5c1.1-1.2,2.1-2.3,3.2-3.5
			c0.4-0.4,0.5-0.7,0.5-1.1c-0.1-0.6-0.2-1.1-0.4-1.6c-0.1-0.4-0.3-0.7-0.5-1.1c-0.1-0.1-0.2-0.3-0.2-0.4
			c-5.3,5.8-10.5,11.6-15.8,17.4C48.6,61.6,42.8,68,37,74.4z"/>
	</g>
	<g>
		<path class="st2" d="M29.8,69.1C41.2,56.5,52.6,43.9,64,31.4c-0.6-0.5-2.4-1.1-3.4-1.2c-0.9-0.1-1.7,0.1-2.3,0.9
			c-2.1,2.4-4.2,4.7-6.3,7c-8.2,9.1-16.5,18.2-24.7,27.3c-0.2,0.3-0.5,0.5-0.8,0.8C28.2,66.5,29.3,67.4,29.8,69.1z"/>
		<path class="st2" d="M29.6,70.2l-0.3-0.9c-0.4-1.5-1.3-2.3-2.9-2.5l-1-0.2l0.7-0.7c0.1-0.1,0.2-0.2,0.3-0.3
			c0.2-0.1,0.3-0.3,0.4-0.4c4.1-4.6,8.3-9.1,12.4-13.7c4.1-4.6,8.3-9.1,12.4-13.7c2.1-2.3,4.2-4.6,6.3-7c0.6-0.8,1.6-1.2,2.8-1.1
			c1.1,0.1,3,0.7,3.7,1.3l0.4,0.4l-0.4,0.4C53.2,44,41.9,56.6,30.9,68.7L29.6,70.2z M27.6,65.9c1.1,0.4,1.9,1.1,2.4,2.2l0.1-0.1
			c10.8-12,22.1-24.4,33.1-36.5c-0.7-0.3-1.9-0.7-2.6-0.8c-0.8-0.1-1.4,0.1-1.8,0.7c-2.1,2.4-4.2,4.7-6.3,7
			C48.3,43,44.2,47.6,40,52.1c-4.1,4.5-8.2,9.1-12.3,13.6C27.7,65.8,27.6,65.9,27.6,65.9z"/>
	</g>
	<g>
		<path class="st2" d="M26.1,83.9c0.2-0.1,0.4-0.1,0.5-0.2c3.3-1.2,6.5-2.4,9.8-3.5c0.7-0.3,1-0.7,1.1-1.4c0-1.3-1-2.5-2.5-2.6
			c-0.7-0.1-1.4,0.1-2.1,0.2c0.4-1.4,0.2-2.7-0.9-3.7c-1.2-1-2.5-1-3.8-0.4c0.1-0.4,0.2-0.8,0.2-1.2c0.2-1.4-0.8-2.9-2.1-3.2
			c-1-0.3-1.9,0.2-2.2,1.2c-0.8,3.1-1.5,6.2-2.3,9.3c-0.1,0.4-0.2,0.9-0.3,1.3C23.9,80.3,25.4,81.6,26.1,83.9z"/>
		<path class="st2" d="M25.8,84.6L25.7,84c-0.6-2.1-2-3.3-4.3-3.9L20.9,80l0.1-0.4c0-0.2,0.1-0.4,0.1-0.6c0-0.2,0.1-0.5,0.1-0.7
			c0.4-1.6,0.8-3.1,1.1-4.6c0.4-1.6,0.8-3.1,1.2-4.7c0.2-0.6,0.6-1.1,1.1-1.4c0.5-0.3,1.1-0.3,1.7-0.2c1.5,0.3,2.7,2.1,2.4,3.7
			c0,0.1,0,0.3,0,0.4c1.3-0.3,2.4-0.1,3.5,0.8c1,0.9,1.4,2.1,1.2,3.5c0.5-0.1,1-0.2,1.6-0.1c1.6,0.1,2.9,1.4,2.9,3.1
			c-0.1,0.9-0.5,1.5-1.4,1.8c-2.6,0.9-5.1,1.8-7.7,2.7l-2.1,0.8c-0.1,0.1-0.2,0.1-0.3,0.1c-0.1,0-0.1,0-0.2,0.1L25.8,84.6z M22,79.4
			c2.2,0.7,3.6,1.9,4.3,3.9l0.1,0l2.1-0.8c2.6-1,5.1-1.9,7.7-2.7c0.5-0.2,0.7-0.5,0.8-1c0-1.1-0.9-2-2.1-2.1c-0.5-0.1-1,0-1.5,0.1
			c-0.2,0-0.4,0.1-0.5,0.1L32.3,77l0.2-0.7c0.4-1.3,0.1-2.4-0.8-3.2c-1-0.8-2-0.9-3.3-0.3l-0.9,0.4l0.2-0.9c0.1-0.4,0.2-0.7,0.2-1.1
			c0.2-1.2-0.7-2.5-1.7-2.8c-0.4-0.1-0.7-0.1-1,0.1c-0.3,0.2-0.5,0.4-0.6,0.8c-0.4,1.5-0.8,3.1-1.1,4.6c-0.4,1.6-0.8,3.1-1.2,4.7
			c0,0.2-0.1,0.4-0.1,0.6C22.1,79.2,22.1,79.3,22,79.4z"/>
	</g>
	<g>
		<path class="st0" d="M67.7,20.5c6.3,1.8,10.5,5.6,12.8,11.6c1.2-1.3,2.4-2.7,3.7-4c0.4-0.4,0.6-0.9,0.5-1.5
			c-0.1-1-0.4-1.9-0.9-2.8c-1.8-3.1-4.3-5.4-7.5-7c-1.1-0.5-2.2-1-3.4-0.9c-0.6,0-1,0.2-1.4,0.7c-0.9,1-1.9,2.1-2.8,3.1
			C68.3,20,68,20.3,67.7,20.5z"/>
		<path class="st0" d="M80.4,32.5l-0.1-0.3c-2.3-5.9-6.4-9.7-12.7-11.5l-0.5-0.1l0.4-0.3c0.2-0.1,0.3-0.2,0.5-0.4
			c0.2-0.1,0.3-0.3,0.5-0.4c0.4-0.5,0.9-1,1.4-1.6l1.3-1.5c0.4-0.5,0.9-0.8,1.6-0.8c1.2-0.1,2.4,0.4,3.5,0.9c3.3,1.7,5.8,4,7.6,7.1
			c0.5,1,0.8,1.9,0.9,2.9c0.1,0.6-0.1,1.2-0.6,1.7c-0.9,0.9-1.7,1.8-2.5,2.7c-0.4,0.4-0.8,0.9-1.2,1.3L80.4,32.5z M68.2,20.4
			c6,1.8,10.1,5.5,12.4,11.3c0.3-0.3,0.6-0.7,0.9-1c0.8-0.9,1.7-1.8,2.5-2.7c0.4-0.4,0.5-0.8,0.4-1.3c-0.1-1-0.4-1.8-0.9-2.7
			c-1.8-3-4.2-5.3-7.4-6.9c-1.1-0.5-2.1-1-3.3-0.9c-0.6,0-0.9,0.2-1.2,0.6l-1.3,1.5c-0.5,0.6-1,1.1-1.5,1.6
			c-0.2,0.2-0.4,0.3-0.5,0.4C68.3,20.3,68.2,20.4,68.2,20.4z"/>
	</g>
	<g>
		<path class="st2" d="M77,36.1c0.4-0.5,0.7-0.9,1.1-1.3c0.7-0.7,0.8-1.5,0.5-2.3c-0.2-0.6-0.3-1.2-0.6-1.8c-2-3.6-4.8-6.2-8.6-7.8
			c-0.6-0.2-1.2-0.3-1.8-0.5c-1.7-0.4-2.4,0.9-3.3,2c3.1,0.5,5.6,2.1,7.8,4.1C74.3,30.7,76.2,33,77,36.1z"/>
		<path class="st2" d="M76.9,36.6l-0.1-0.4C76,33,74,30.7,71.9,28.7c-2.6-2.3-5-3.6-7.7-4l-0.4-0.1l0.2-0.3c0.1-0.1,0.2-0.3,0.3-0.4
			c0.8-1,1.6-2,3.2-1.6c0.3,0.1,0.6,0.2,0.9,0.3c0.3,0.1,0.6,0.2,0.9,0.3c3.8,1.6,6.7,4.2,8.7,7.9c0.2,0.4,0.3,0.8,0.4,1.3
			c0.1,0.2,0.1,0.4,0.2,0.6c0.4,0.9,0.2,1.8-0.6,2.5c-0.3,0.3-0.6,0.6-0.9,1L76.9,36.6z M64.7,24.2c2.6,0.5,5,1.8,7.5,4.1
			c2,2,3.9,4.3,4.8,7.3c0.3-0.4,0.5-0.7,0.8-1c0.6-0.6,0.7-1.3,0.4-2.1c-0.1-0.2-0.1-0.4-0.2-0.6c-0.1-0.4-0.2-0.8-0.4-1.2
			c-2-3.6-4.8-6.1-8.5-7.7c-0.3-0.1-0.6-0.2-0.9-0.2c-0.3-0.1-0.6-0.2-0.9-0.3c-1.3-0.3-2,0.5-2.7,1.5
			C64.8,24.1,64.7,24.2,64.7,24.2z"/>
	</g>
	<g>
		<path class="st2" d="M73.6,39.8c0.3-0.4,0.7-0.8,1.1-1.3c0.4-0.4,0.5-0.8,0.5-1.3c0-0.9-0.3-1.7-0.7-2.4c-1.2-2.5-3.1-4.4-5.3-6
			c-1.3-1-2.8-1.8-4.4-2.2c-0.8-0.2-1.7-0.4-2.5,0.1c-0.6,0.4-1.1,1.1-1.6,1.6C67,30,71.2,33.8,73.6,39.8z"/>
		<path class="st2" d="M73.5,40.3l-0.1-0.4c-2.4-6-6.6-9.7-12.8-11.4l-0.4-0.1l0.3-0.3c0.2-0.2,0.3-0.3,0.5-0.5
			c0.4-0.4,0.7-0.8,1.1-1.1c0.9-0.6,1.9-0.3,2.7-0.1c1.5,0.4,3.1,1.2,4.5,2.2c2.5,1.8,4.3,3.8,5.4,6.1c0.5,0.8,0.7,1.7,0.7,2.5
			c0,0.5-0.1,1-0.6,1.5c-0.2,0.2-0.4,0.4-0.5,0.6c-0.2,0.2-0.4,0.4-0.5,0.6L73.5,40.3z M61.1,28.2c6,1.7,10.1,5.4,12.5,11.2
			c0.1-0.1,0.2-0.2,0.3-0.4c0.2-0.2,0.4-0.4,0.5-0.6c0.4-0.4,0.5-0.7,0.5-1.2c0-0.8-0.2-1.5-0.7-2.3c-1.1-2.2-2.7-4.1-5.2-5.9
			c-1.4-1.1-2.9-1.8-4.3-2.2c-0.9-0.2-1.6-0.4-2.3,0.1c-0.4,0.2-0.7,0.6-1.1,1C61.3,28,61.2,28.1,61.1,28.2z"/>
	</g>
	<g>
		<path class="st0" d="M24.3,84.6c-0.2-1.5-1.8-3-3.2-3c-0.4,1.5-0.7,3-1.1,4.6C21.5,85.6,22.9,85.1,24.3,84.6z"/>
		<path class="st0" d="M19.3,87l0.2-0.9c0.2-0.7,0.3-1.4,0.5-2c0.2-0.9,0.4-1.7,0.6-2.6l0.1-0.3h0.4c1.6,0,3.4,1.7,3.7,3.4l0,0.4
			L24.5,85c-1.4,0.5-2.8,1-4.3,1.6L19.3,87z M21.4,82.1c-0.2,0.7-0.3,1.4-0.5,2.2c-0.1,0.4-0.2,0.8-0.3,1.2c1.1-0.4,2.1-0.8,3.1-1.1
			C23.5,83.3,22.4,82.3,21.4,82.1z"/>
	</g>
</g>
</svg>
