<?xml version="1.0" encoding="utf-8"?>
<!-- Generator: Adobe Illustrator 20.1.0, SVG Export Plug-In . SVG Version: 6.00 Build 0)  -->
<svg version="1.1" id="Layer_1" xmlns="http://www.w3.org/2000/svg" xmlns:xlink="http://www.w3.org/1999/xlink" x="0px" y="0px"
	 viewBox="0 0 100 100" style="enable-background:new 0 0 100 100;" xml:space="preserve">
<style type="text/css">
	.st0{fill:#E99574;}
	.st1{clip-path:url(#SVGID_3_);}
	.st2{fill:#f2f2ee;}
	.st3{fill:#757271;}
	.st4{fill:#F05B26;}
</style>
<g>
	<g>
		<g>
			<g>
				<circle id="SVGID_1_" class="st0" cx="50.1" cy="50" r="33.7"/>
			</g>
			<g>
				<defs>
					<circle id="SVGID_2_" cx="50.1" cy="50" r="33.7"/>
				</defs>
				<clipPath id="SVGID_3_">
					<use xlink:href="#SVGID_2_"  style="overflow:visible;"/>
				</clipPath>
				<g class="st1">
					<g>
						<path class="st2" d="M24.8,75.1l7.9-29.4c0.2-0.9,1.1-1.4,2-1.2l44.3,12l-2.7-20.1c-0.1-0.9-1-1.5-1.9-1.4l-57.7,7.9
							c-0.9,0.1-1.5,1-1.4,1.9l4.1,30.1c0.1,0.9,1,1.5,1.9,1.4l3.5-0.5C24.7,75.6,24.7,75.4,24.8,75.1z"/>
						<path class="st3" d="M21.1,77c-1.2,0-2.3-0.9-2.4-2l-4.1-30.1c-0.1-1.4,0.8-2.6,2-2.7l57.7-7.9c0.6-0.1,1.3,0.1,1.8,0.4
							c0.5,0.4,0.9,0.9,0.9,1.6l2.8,21.1L34.5,45.2c-0.5-0.1-1,0.2-1.1,0.7l-7.9,29.5c0,0.1,0,0.2,0,0.2l0.4,0.9L21.4,77
							C21.3,77,21.2,77,21.1,77z M74.6,35.7c0,0-0.1,0-0.1,0l-57.7,7.9c-0.5,0.1-0.9,0.6-0.8,1.1l4.1,30.1c0.1,0.5,0.6,0.9,1.1,0.8
							l2.8-0.4c0-0.1,0-0.2,0.1-0.3L32,45.5c0.3-1.2,1.5-2,2.8-1.7l43.3,11.7l-2.6-19.1c0-0.3-0.2-0.5-0.4-0.6
							C75.1,35.8,74.8,35.7,74.6,35.7z"/>
					</g>
					
						<rect x="15.9" y="46.5" transform="matrix(0.9911 -0.1333 0.1333 0.9911 -5.8493 6.6458)" class="st3" width="61.5" height="0.9"/>
					<circle class="st4" cx="19.7" cy="46.7" r="1.1"/>
					<circle class="st4" cx="23.2" cy="46.2" r="1.1"/>
					<circle class="st4" cx="26.7" cy="45.7" r="1.1"/>
					<g>
						<path class="st2" d="M71.3,96.2L23.9,83.5c-0.7-0.2-1.1-0.9-0.9-1.6l9.8-36.5c0.2-0.7,0.9-1.1,1.6-0.9l47.4,12.7
							c0.7,0.2,1.1,0.9,0.9,1.6l-9.8,36.5C72.6,96,71.9,96.4,71.3,96.2z"/>
						<path class="st3" d="M71.6,97c-0.2,0-0.4,0-0.5-0.1L23.7,84.2c-1.1-0.3-1.8-1.4-1.4-2.6l9.8-36.5c0.3-1.1,1.4-1.8,2.6-1.4
							L82,56.5c1.1,0.3,1.8,1.4,1.4,2.6l-9.8,36.6C73.2,96.5,72.4,97,71.6,97z M34,45.2c-0.2,0-0.4,0.2-0.5,0.4l-9.8,36.5
							c-0.1,0.3,0.1,0.6,0.4,0.7l47.4,12.7c0.2,0.1,0.5-0.1,0.6-0.4L82,58.6c0.1-0.2,0-0.3,0-0.4c-0.1-0.1-0.2-0.2-0.3-0.3
							L34.2,45.2C34.1,45.2,34.1,45.2,34,45.2z"/>
					</g>
					
						<rect x="55.5" y="32.9" transform="matrix(0.2593 -0.9658 0.9658 0.2593 -15.2514 97.5132)" class="st3" width="0.9" height="51.7"/>
					<circle class="st4" cx="36" cy="49.3" r="1.1"/>
					<circle class="st4" cx="39.4" cy="50.2" r="1.1"/>
					<circle class="st4" cx="42.8" cy="51.1" r="1.1"/>
				</g>
			</g>
			<g>
				<path class="st3" d="M50.1,84.6C31,84.6,15.5,69.1,15.5,50c0-19.1,15.5-34.6,34.6-34.6S84.7,30.9,84.7,50
					C84.7,69.1,69.2,84.6,50.1,84.6z M50.1,17.2C32,17.2,17.3,31.9,17.3,50c0,18.1,14.7,32.8,32.8,32.8c18.1,0,32.8-14.7,32.8-32.8
					C82.9,31.9,68.2,17.2,50.1,17.2z"/>
			</g>
		</g>
	</g>
	<g>
		<g>
			<path class="st2" d="M90.5,18.4L80.3,28.6c-0.8,0.8-2,0.8-2.8,0l-5.2-5.2c-0.8-0.8-0.8-2,0-2.8l10.3-10.3c-2-0.9-4.1-1.4-6.4-1.4
				c-8.6,0-15.5,6.9-15.5,15.5c0,2.1,0.4,4.2,1.2,6l-7.2,7.2l20.5-2.8c0.5-0.1,0.9,0.3,0.9,0.7l0.6,4.4c8.3-0.3,15-7.1,15-15.5
				C91.7,22.3,91.3,20.2,90.5,18.4z"/>
			<path class="st3" d="M76.1,40.6l-0.7-5l0,0l-0.1-0.1l-22.6,3.1l8.3-8.3c-0.7-1.8-1.1-3.8-1.1-5.8c0-8.9,7.3-16.2,16.2-16.2
				c2.3,0,4.5,0.5,6.7,1.5l0.9,0.4l-11,11c-0.5,0.5-0.5,1.3,0,1.8l5.2,5.2c0.5,0.5,1.3,0.5,1.8,0l10.9-10.9l0.4,0.9
				c0.8,1.9,1.3,4,1.3,6.3c0,8.8-6.9,15.9-15.7,16.2L76.1,40.6z M75.4,34.1c0.3,0,0.6,0.1,0.9,0.3c0.3,0.3,0.5,0.7,0.5,1.1l0.5,3.7
				C85,38.6,91,32.2,91,24.4c0-1.7-0.3-3.3-0.8-4.7l-9.4,9.4c-1,1-2.8,1-3.8,0l-5.2-5.2c-1.1-1.1-1.1-2.7,0-3.8l9.6-9.6
				c-1.7-0.6-3.4-0.9-5.2-0.9c-8.2,0-14.8,6.6-14.8,14.8c0,2.1,0.4,4,1.1,5.7l0.2,0.4l-6.1,6.1l18.4-2.5
				C75.2,34.1,75.3,34.1,75.4,34.1z"/>
		</g>
	</g>
</g>
</svg>
